# xmcd
#
# Track frame offsets:
#	150
#	21330
#	40235
#	59077
#	77055
#	91362
#	110282
#	125872
#	142212
#	163395
#	182297
#	201140
#	219117
#	233425
#	252345
#	267935
#
# Disc length: 3790 seconds
#
# Revision: 1
# Processed by: cddbd v1.5.1PL2 Copyright (c) Steve Scherf et al.
# Submitted via: audiograbber 1.83.01
#
DISCID=e60ecc10
DTITLE=Karaoke Bay - kb27532
DYEAR=1900
DGENRE=
TTITLE0=Messina, Jo Dee - Burn
TTITLE1=Womack, Lee Ann - Ashes By Now
TTITLE2=SheDaisy - Lucky 4  U Tonight I'm Just Me
TTITLE3=O'Neal, Jamie - There Is No Arizona
TTITLE4=Dixie Chicks - If I Fall You're Going Down With Me
TTITLE5=Andrews Sisters - Who I Am
TTITLE6=McBride, Martina - It's My Time
TTITLE7=Hill, Faith - If My Heart Had Wings
TTITLE8=Messina, Jo Dee - Burn (Vocal)
TTITLE9=Womack, Lee Ann - Ashes By Now (Vocal)
TTITLE10=SheDaisy - Lucky 4 U Tonight I'm Just Me (Vocal)
TTITLE11=O'Neal, Jamie - There Is No Arizona (Vocal)
TTITLE12=Dixie Chicks - If I Fall You're Going With Me (Vocal)
TTITLE13=Andrews Sisters - Who I Am (Vocal)
TTITLE14=McBride, Martina - It's My Time (Vocal)
TTITLE15=Hill, Faith - If My Heart Had Wings (Vocal)
EXTD=
EXTT0=
EXTT1=
EXTT2=
EXTT3=
EXTT4=
EXTT5=
EXTT6=
EXTT7=
EXTT8=
EXTT9=
EXTT10=
EXTT11=
EXTT12=
EXTT13=
EXTT14=
EXTT15=
PLAYORDER=
